<?xml version="1.0" encoding="UTF-8" standalone="no"?>
<!-- Created with Inkscape (http://www.inkscape.org/) -->

<svg
   width="72.089447mm"
   height="93.622421mm"
   viewBox="0 0 72.089447 93.622422"
   version="1.1"
   id="svg1"
   xml:space="preserve"
   inkscape:version="1.4.2 (ebf0e940, 2025-05-08)"
   sodipodi:docname="process-flow.svg"
   xmlns:inkscape="http://www.inkscape.org/namespaces/inkscape"
   xmlns:sodipodi="http://sodipodi.sourceforge.net/DTD/sodipodi-0.dtd"
   xmlns="http://www.w3.org/2000/svg"
   xmlns:svg="http://www.w3.org/2000/svg"><sodipodi:namedview
     id="namedview1"
     pagecolor="#1b4332"
     bordercolor="#666666"
     borderopacity="1.0"
     inkscape:showpageshadow="2"
     inkscape:pageopacity="0.0"
     inkscape:pagecheckerboard="0"
     inkscape:deskcolor="#d1d1d1"
     inkscape:document-units="mm"
     showgrid="false"
     inkscape:zoom="0.77743661"
     inkscape:cx="861.16346"
     inkscape:cy="501.64862"
     inkscape:window-width="1680"
     inkscape:window-height="997"
     inkscape:window-x="0"
     inkscape:window-y="25"
     inkscape:window-maximized="0"
     inkscape:current-layer="layer1"><inkscape:page
       x="0"
       y="0"
       width="72.089447"
       height="93.622421"
       id="page2"
       margin="0"
       bleed="0" /></sodipodi:namedview><defs
     id="defs1"><rect
       x="223.81245"
       y="554.38605"
       width="271.40479"
       height="88.75322"
       id="rect16-7" /></defs><g
     inkscape:label="Layer 1"
     inkscape:groupmode="layer"
     id="layer1"
     transform="translate(-115.82611,-110.84925)"><rect
       style="fill:#1b4e30;fill-opacity:1;stroke:#2b506c;stroke-width:0.259452;stroke-opacity:1"
       id="rect2"
       width="71.830002"
       height="85.471321"
       x="115.95583"
       y="118.87061"
       rx="10"
       ry="10" /><path
       id="rect2-4"
       style="fill:#446c52;fill-opacity:1;stroke:#2b506c;stroke-width:0.259452;stroke-opacity:1"
       d="m 125.88818,118.87061 c -4.9765,0 -9.08143,3.59905 -9.86503,8.34678 v 3.16518 h 71.69536 v -1.51206 c 0,-5.54 -4.46042,-9.9999 -10.00042,-9.9999 z" /><circle
       style="fill:#144125;fill-opacity:1;stroke:#2b506c;stroke-width:0.300381;stroke-opacity:1"
       id="path1"
       cx="151.87083"
       cy="130.06894"
       r="19.069504" /><g
       style="fill:#ffffff;fill-opacity:1;stroke:#000000;stroke-width:0.636168;stroke-dasharray:none;stroke-opacity:1"
       id="g5"
       transform="matrix(0.02645833,0,0,0.02541392,139.17084,142.7759)"><path
         d="m 80,-120 v -80 h 360 v -447 q -26,-9 -45,-28 -19,-19 -28,-45 H 240 l 120,280 q 0,50 -41,85 -41,35 -99,35 -58,0 -99,-35 -41,-35 -41,-85 l 120,-280 h -80 v -80 h 247 q 12,-35 43,-57.5 31,-22.5 70,-22.5 39,0 70,22.5 31,22.5 43,57.5 h 247 v 80 h -80 l 120,280 q 0,50 -41,85 -41,35 -99,35 -58,0 -99,-35 -41,-35 -41,-85 L 720,-720 H 593 q -9,26 -28,45 -19,19 -45,28 v 447 h 360 v 80 z m 585,-320 h 150 l -75,-174 z m -520,0 h 150 l -75,-174 z m 335,-280 q 17,0 28.5,-11.5 Q 520,-743 520,-760 520,-777 508.5,-788.5 497,-800 480,-800 q -17,0 -28.5,11.5 -11.5,11.5 -11.5,28.5 0,17 11.5,28.5 11.5,11.5 28.5,11.5 z"
         id="path1-5"
         style="fill:#ffffff;fill-opacity:1;stroke:#000000;stroke-width:0.636168;stroke-dasharray:none;stroke-opacity:1" /></g><text
       xml:space="preserve"
       transform="matrix(0.26458333,0,0,0.26458333,56.643832,25.982864)"
       id="text16-7"
       style="font-style:normal;font-variant:normal;font-weight:normal;font-stretch:normal;font-size:24px;line-height:1.35;font-family:'Arial Rounded MT Bold';-inkscape-font-specification:'Arial Rounded MT Bold, Normal';font-variant-ligatures:none;font-variant-caps:normal;font-variant-numeric:normal;font-variant-east-asian:normal;text-align:center;direction:ltr;white-space:pre;shape-inside:url(#rect16-7);fill:#ffffff"
       x="94.02356"
       y="0"><tspan
         x="271.36621"
         y="577.21452"
         id="tspan1">HIGH-QUALITY </tspan><tspan
         x="231.56348"
         y="609.61454"
         id="tspan2">PATENT PORTFOLIOS</tspan></text><text
       xml:space="preserve"
       style="font-style:normal;font-variant:normal;font-weight:bold;font-stretch:normal;font-size:10.2306px;line-height:1.25;font-family:Arial;-inkscape-font-specification:'Arial, Bold';font-variant-ligatures:none;font-variant-caps:normal;font-variant-numeric:normal;font-variant-east-asian:normal;fill:#ffffff;stroke-width:0.264583"
       x="128.63469"
       y="161.8945"
       id="text12-9"><tspan
         sodipodi:role="line"
         id="tspan13"
         x="128.63469"
         y="161.8945">PATENTS</tspan></text></g></svg>
