<?xml version="1.0" encoding="UTF-8" standalone="no"?>
<svg
   width="32"
   height="32"
   viewBox="0 0 32 32"
   version="1.1"
   id="SVGRoot"
   inkscape:version="1.0.2 (e86c8708, 2021-01-15)"
   sodipodi:docname="s-icon.svg"
   inkscape:export-filename="/Users/Peter/Google Drive/Steel Muse/Business/logos/favicon.png"
   inkscape:export-xdpi="94.140404"
   inkscape:export-ydpi="94.140404"
   xmlns:inkscape="http://www.inkscape.org/namespaces/inkscape"
   xmlns:sodipodi="http://sodipodi.sourceforge.net/DTD/sodipodi-0.dtd"
   xmlns:xlink="http://www.w3.org/1999/xlink"
   xmlns="http://www.w3.org/2000/svg"
   xmlns:svg="http://www.w3.org/2000/svg"
   xmlns:rdf="http://www.w3.org/1999/02/22-rdf-syntax-ns#"
   xmlns:cc="http://creativecommons.org/ns#"
   xmlns:dc="http://purl.org/dc/elements/1.1/">
  <defs
     id="defs5481">
    <linearGradient
       id="linearGradient1962"
       inkscape:swatch="gradient">
      <stop
         style="stop-color:#000000;stop-opacity:1;"
         offset="0"
         id="stop1958" />
      <stop
         style="stop-color:#000000;stop-opacity:0;"
         offset="1"
         id="stop1960" />
    </linearGradient>
    <linearGradient
       id="linearGradient1954"
       inkscape:swatch="solid">
      <stop
         style="stop-color:#000000;stop-opacity:1;"
         offset="0"
         id="stop1952" />
    </linearGradient>
    <linearGradient
       id="linearGradient1948"
       inkscape:swatch="solid">
      <stop
         style="stop-color:#000000;stop-opacity:1;"
         offset="0"
         id="stop1946" />
    </linearGradient>
    <linearGradient
       id="linearGradient1942"
       inkscape:swatch="solid">
      <stop
         style="stop-color:#ffffff;stop-opacity:1;"
         offset="0"
         id="stop1940" />
    </linearGradient>
    <linearGradient
       id="linearGradient1936"
       inkscape:swatch="solid">
      <stop
         style="stop-color:#000000;stop-opacity:1;"
         offset="0"
         id="stop1934" />
    </linearGradient>
    <linearGradient
       id="linearGradient901"
       inkscape:swatch="solid">
      <stop
         style="stop-color:#000000;stop-opacity:1;"
         offset="0"
         id="stop899" />
    </linearGradient>
    <linearGradient
       id="linearGradient895"
       inkscape:swatch="solid">
      <stop
         style="stop-color:#000000;stop-opacity:1;"
         offset="0"
         id="stop893" />
    </linearGradient>
    <linearGradient
       id="linearGradient6047"
       inkscape:swatch="solid">
      <stop
         style="stop-color:#003300;stop-opacity:1;"
         offset="0"
         id="stop6045" />
    </linearGradient>
    <linearGradient
       id="linearGradient6041"
       inkscape:swatch="solid">
      <stop
         style="stop-color:#000000;stop-opacity:1;"
         offset="0"
         id="stop6039" />
    </linearGradient>
    <linearGradient
       inkscape:collect="always"
       xlink:href="#linearGradient6047"
       id="linearGradient6049"
       x1="0"
       y1="16.0625"
       x2="31.875"
       y2="16.0625"
       gradientUnits="userSpaceOnUse" />
    <linearGradient
       inkscape:collect="always"
       xlink:href="#linearGradient1942"
       id="linearGradient1978"
       gradientUnits="userSpaceOnUse"
       x1="-128.10822"
       y1="-162.53503"
       x2="-52.106632"
       y2="-162.53503" />
    <linearGradient
       inkscape:collect="always"
       xlink:href="#linearGradient1942"
       id="linearGradient1980"
       gradientUnits="userSpaceOnUse"
       x1="-127.60742"
       y1="-162.53503"
       x2="-52.607422"
       y2="-162.53503" />
    <linearGradient
       inkscape:collect="always"
       xlink:href="#linearGradient1942"
       id="linearGradient1982"
       gradientUnits="userSpaceOnUse"
       x1="-128.10822"
       y1="-162.53503"
       x2="-52.106632"
       y2="-162.53503" />
    <linearGradient
       inkscape:collect="always"
       xlink:href="#linearGradient1942"
       id="linearGradient1984"
       gradientUnits="userSpaceOnUse"
       x1="-127.60742"
       y1="-162.53503"
       x2="-52.607422"
       y2="-162.53503" />
  </defs>
  <sodipodi:namedview
     id="base"
     pagecolor="#ffffff"
     bordercolor="#666666"
     borderopacity="1.0"
     inkscape:pageopacity="0.0"
     inkscape:pageshadow="2"
     inkscape:zoom="2.1047304"
     inkscape:cx="-33.831609"
     inkscape:cy="142.22425"
     inkscape:document-units="px"
     inkscape:current-layer="layer1"
     showgrid="false"
     inkscape:window-width="1600"
     inkscape:window-height="1147"
     inkscape:window-x="0"
     inkscape:window-y="25"
     inkscape:window-maximized="1"
     inkscape:grid-bbox="true"
     inkscape:document-rotation="0"
     inkscape:showpageshadow="2"
     inkscape:pagecheckerboard="0"
     inkscape:deskcolor="#d1d1d1">
    <inkscape:page
       x="0"
       y="0"
       width="32"
       height="32"
       id="page2"
       margin="0"
       bleed="0" />
  </sodipodi:namedview>
  <metadata
     id="metadata5484">
    <rdf:RDF>
      <cc:Work
         rdf:about="">
        <dc:format>image/svg+xml</dc:format>
        <dc:type
           rdf:resource="http://purl.org/dc/dcmitype/StillImage" />
        <dc:title />
      </cc:Work>
    </rdf:RDF>
  </metadata>
  <g
     inkscape:label="Layer 1"
     inkscape:groupmode="layer"
     id="layer1">
    <rect
       style="opacity:1;fill:url(#linearGradient6049);fill-opacity:1;stroke:none;stroke-opacity:1"
       id="rect6037"
       width="32"
       height="32"
       x="0"
       y="0"
       ry="9.0658636" />
    <g
       aria-label="s"
       transform="matrix(0.81404815,0,0,0.81335006,109.19419,148.19785)"
       style="font-style:normal;font-variant:normal;font-weight:normal;font-stretch:normal;font-size:40px;line-height:1.25;font-family:Michroma;-inkscape-font-specification:'Michroma, Normal';font-variant-ligatures:normal;font-variant-caps:normal;font-variant-numeric:normal;font-feature-settings:normal;text-align:start;letter-spacing:0px;word-spacing:0px;writing-mode:lr-tb;text-anchor:start;fill:url(#linearGradient1982);fill-opacity:1;fill-rule:evenodd;stroke:url(#linearGradient1984);stroke-width:1.00157;stroke-miterlimit:4;stroke-dasharray:none;stroke-opacity:1"
       id="flowRoot1926">
      <path
         d="m -114.48242,-161.34362 q 2.1875,0 3.73047,0.0781 1.54297,0.0586 2.57812,0.23438 1.05469,0.15625 1.66016,0.41016 0.60547,0.2539 0.91797,0.76171 0.3125,0.48829 0.39062,0.9961 0.0977,0.48828 0.0977,1.13281 0,0.70313 -0.0977,1.28906 -0.0781,0.56641 -0.41015,1.03516 -0.33204,0.46875 -0.97657,0.80078 -0.64453,0.33203 -1.75781,0.56641 -1.11328,0.23437 -2.77344,0.35156 -1.64062,0.0977 -3.98437,0.0977 -2.57813,0 -4.27735,-0.13672 -1.67968,-0.15625 -2.67578,-0.56641 -0.99609,-0.41016 -1.40625,-1.13281 -0.39062,-0.74219 -0.39062,-1.91406 h -3.75 q 0,1.77734 0.625,3.00781 0.64453,1.23047 2.10937,2.01172 1.46485,0.76172 3.84766,1.11328 2.40234,0.35156 5.91797,0.35156 2.8125,0 4.92187,-0.17578 2.12891,-0.15625 3.65235,-0.48828 1.52343,-0.35156 2.51953,-0.89844 1.01562,-0.56641 1.60156,-1.32812 0.58594,-0.78125 0.82031,-1.77735 0.23438,-1.01562 0.23438,-2.28515 0,-1.26954 -0.23438,-2.22657 -0.23437,-0.97656 -0.82031,-1.67968 -0.56641,-0.72266 -1.52344,-1.32813 -0.95703,-0.60547 -2.42187,-0.89844 -1.46485,-0.29297 -3.47656,-0.41015 -1.99219,-0.11719 -4.64844,-0.11719 -2.1875,0 -3.73047,0 -1.54297,-0.0195 -2.59766,-0.11719 -1.03515,-0.11719 -1.64062,-0.33203 -0.60547,-0.21484 -0.91797,-0.625 -0.3125,-0.41016 -0.41016,-1.03516 -0.0781,-0.64453 -0.0781,-1.30859 0,-1.13281 0.50781,-1.77734 0.50781,-0.64453 1.67969,-0.95703 1.17187,-0.3125 3.08594,-0.39063 1.91406,-0.0781 4.72656,-0.0781 2.57812,0 4.25781,0.15625 1.69922,0.13671 2.69531,0.52734 0.9961,0.37109 1.38672,1.03516 0.41016,0.66406 0.41016,1.71875 h 3.75 q 0,-1.69922 -0.56641,-2.92969 -0.5664,-1.23047 -1.99219,-2.03125 -1.40625,-0.82031 -3.82812,-1.21094 -2.40234,-0.39062 -6.11328,-0.39062 -3.75,0 -6.36719,0.33203 -2.61719,0.33203 -4.25781,1.09375 -1.64063,0.74218 -2.38281,1.95312 -0.74219,1.19141 -0.74219,2.94922 0,1.28906 0.23437,2.40234 0.23438,1.09375 0.80078,1.85547 0.56641,0.74219 1.52344,1.19141 0.97656,0.44922 2.42188,0.70312 1.46484,0.23438 3.47656,0.3125 2.01172,0.0781 4.66797,0.0781 z"
         style="fill:url(#linearGradient1978);fill-opacity:1;fill-rule:evenodd;stroke:url(#linearGradient1980);stroke-width:1.00157;stroke-miterlimit:4;stroke-dasharray:none;stroke-opacity:1"
         id="path1986" />
    </g>
  </g>
</svg>
